<mxfile host="app.diagrams.net" modified="2023-08-02T06:11:09.072Z" agent="Mozilla/5.0 (Windows NT 10.0; Win64; x64) AppleWebKit/537.36 (KHTML, like Gecko) Chrome/115.0.0.0 Safari/537.36 Edg/115.0.1901.188" version="21.6.6" etag="1_YGWCFVpTrUDIQGsiha" type="github">
  <diagram name="第 1 页" id="5_qqkdlO3jKT0sV0IZk1">
    <mxGraphModel>
      <root>
        <mxCell id="0" />
        <mxCell id="1" parent="0" />
      </root>
    </mxGraphModel>
  </diagram>
</mxfile>
